<?xml version="1.0" encoding="UTF-8" standalone="no"?>
<!-- Created with Inkscape (http://www.inkscape.org/) -->

<svg
   version="1.1"
   id="svg1"
   width="2340"
   height="3470"
   viewBox="0 0 2340 3470"
   sodipodi:docname="4-nobg.png"
   xmlns:inkscape="http://www.inkscape.org/namespaces/inkscape"
   xmlns:sodipodi="http://sodipodi.sourceforge.net/DTD/sodipodi-0.dtd"
   xmlns="http://www.w3.org/2000/svg"
   xmlns:svg="http://www.w3.org/2000/svg">
  <defs
     id="defs1" />
  <sodipodi:namedview
     id="namedview1"
     pagecolor="#ffffff"
     bordercolor="#000000"
     borderopacity="0.25"
     inkscape:showpageshadow="2"
     inkscape:pageopacity="0.0"
     inkscape:pagecheckerboard="0"
     inkscape:deskcolor="#d1d1d1" />
  <g
     inkscape:groupmode="layer"
     inkscape:label="Image"
     id="g1">
    <path
       style="fill:#000000;fill-opacity:0"
       d="m 703.94275,1293.4586 c 0,11.1047 0,22.2094 0,33.3142 0,7.725 0,15.45 0,23.175 0,0.4828 0,1.9313 0,1.4485 0,-23.1751 0,-46.3502 0,-69.5252 z"
       id="path1" />
    <path
       style="fill:#000000;fill-opacity:0"
       d="m 721.32405,1244.2116 c -0.96563,3.8625 -2.62295,7.6156 -2.89688,11.5875 -1.29426,18.7667 1.04316,37.7124 0,56.4892 -0.50127,9.0229 -2.89688,17.2137 -2.89688,26.072 0,8.0192 1.75918,29.1743 0,36.211 -0.52369,2.0948 -2.42849,3.686 -2.89689,5.7938 -1.34169,6.0376 0,15.6236 0,21.7266 0,10.9404 1.79384,25.4481 0,36.2111 -0.502,3.012 -2.29803,5.6963 -2.89688,8.6906 -1.10933,5.5467 1.3695,11.9033 0,17.3813 -0.52369,2.0948 -2.42849,3.686 -2.89689,5.7938 -0.83467,3.756 1.87639,12.1801 0,15.9329 -0.61071,1.2214 -2.19428,1.7258 -2.89688,2.8968 -2.47306,4.1218 -1.80156,9.2204 -4.34533,13.036 -2.17266,3.259 -1.44844,-0.7242 -4.34532,4.3453 -2.08517,3.6491 -3.5518,11.1215 -5.79377,14.4845 -0.49174,0.7376 -6.49436,7.9428 -7.24221,8.6906 -0.3414,0.3414 -1.04671,-0.2678 -1.44844,0 -1.13625,0.7575 -1.72589,2.1943 -2.89688,2.8969 -4.38534,2.6312 -10.67811,3.4359 -14.48442,7.2422 -0.3414,0.3414 0.3414,1.1071 0,1.4485 -0.66956,0.6695 -3.4708,-0.4373 -4.34533,0 -4.63058,2.3152 -8.20192,7.722 -13.03597,10.139 -0.86369,0.4319 -2.21409,-0.6828 -2.89689,0 -0.6828,0.6828 0.43184,2.0332 0,2.8969 -0.64776,1.2956 -2.89688,0 -4.34532,0 -1.44845,0 -3.1033,0.7452 -4.34533,0 -1.64797,-0.9887 -6.77296,-14.0558 -7.24221,-15.9328 -0.4684,-1.8736 0.4684,-3.9202 0,-5.7938 -0.52368,-2.0947 -2.47343,-3.6765 -2.89688,-5.7938 -0.56813,-2.8406 0,-5.7937 0,-8.6906 0,-7.7986 -0.46698,-15.5134 1.44844,-23.1751 3.21569,-12.8627 9.81456,-24.7738 13.03598,-37.6595 1.42457,-5.6983 2.4091,-11.5279 2.89688,-17.3813 0.44105,-5.2926 -1.04156,-10.725 0,-15.9328 0.50991,-2.5496 2.43178,-4.6842 2.89688,-7.2422 1.3526,-7.4393 -0.83639,-15.6475 0,-23.1751 0.21984,-1.9785 0.96563,-3.8625 1.44845,-5.7938 0.48281,-4.3453 1.15761,-8.6736 1.44844,-13.036 0.38539,-5.7809 -1.03642,-11.681 0,-17.3813 0.46511,-2.5581 2.43177,-4.6841 2.89688,-7.2422 0.86368,-4.7502 -1.17099,-9.8004 0,-14.4844 0.52369,-2.0947 2.3732,-3.699 2.89688,-5.7938 0.4684,-1.8736 -0.61071,-3.9616 0,-5.7937 3.54863,-5.9144 5.27099,-7.9137 7.24221,-14.4844 1.41322,-4.7108 3.56136,-12.9165 5.79377,-17.3813 6.41704,-12.8341 1.92988,-0.7222 7.24221,-8.6907 2.39543,-3.5931 3.65123,-7.8381 5.79377,-11.5875 1.53382,-2.6842 4.4112,-4.4771 5.79377,-7.2422 0.43184,-0.8637 0,-1.9313 0,-2.8969 0.96562,-1.9313 1.78598,-3.9423 2.89688,-5.7938 4.18443,-6.9741 15.7747,-5.6356 21.72663,-11.5875"
       id="path2" />
  </g>
</svg>
